<svg width="129" height="133" viewBox="0 0 129 133" fill="none" xmlns="http://www.w3.org/2000/svg">
<path d="M106.277 122.577C117.753 112.474 125.288 94.7548 124.665 77.6769C124.112 60.5188 115.333 44.1626 103.927 35.9844C92.4515 27.8063 78.3493 27.8063 63.4866 27.0045C48.624 26.2027 33.07 24.4388 21.7329 32.617C10.465 40.8753 3.41386 58.9153 6.80116 73.0266C10.1885 87.1379 24.0142 97.3205 35.2822 107.423C46.6193 117.525 55.3986 127.467 67.427 131.316C79.5245 135.084 94.8019 132.679 106.277 122.577Z" fill="#FFA000"/>
<path d="M106.042 37.9576L106.043 37.9583C118.378 45.465 127.863 60.4611 128.461 76.209C129.134 91.8832 120.994 108.121 108.596 117.385C96.1904 126.654 79.6921 128.856 66.6205 125.4L66.6172 125.4C60.1081 123.632 54.4911 120.468 48.9953 116.611C45.6575 114.269 42.3391 111.652 38.8912 108.932C36.6834 107.191 34.4226 105.408 32.0696 103.628L32.0684 103.627C30.3759 102.34 28.6236 101.046 26.8525 99.7389C22.3478 96.414 17.7214 92.9992 13.648 89.3562C7.96843 84.2768 3.28127 78.6858 1.43122 72.1444C-0.419157 65.6017 0.588548 58.1844 3.5622 51.4737C6.53668 44.7611 11.497 38.7112 17.617 34.9042L17.62 34.9023C23.7822 31.1295 31.0656 29.6646 38.7653 29.2258C45.1259 28.8632 51.8115 29.2 58.4166 29.5326C59.8016 29.6024 61.183 29.672 62.5572 29.7349C63.9007 29.7964 65.2399 29.8527 66.5734 29.9087C80.9607 30.5129 94.6871 31.0894 106.042 37.9576Z" stroke="#14213D"/>
<mask id="mask0" mask-type="alpha" maskUnits="userSpaceOnUse" x="1" y="0" width="127" height="127">
<path d="M108.297 116.984C120.569 107.814 128.627 91.7308 127.962 76.2293C127.37 60.6551 117.981 45.8086 105.783 38.3854C103.26 19.7173 82.6431 0.741341 66.7483 0.0135727C50.8535 -0.714195 30.0055 27.9055 17.8811 35.3288C5.8306 42.8248 -1.71018 59.1996 1.91235 72.0083C5.53488 84.817 20.3207 94.0597 32.3712 103.23C44.4956 112.399 53.8846 121.424 66.7483 124.917C79.6859 128.338 96.0242 126.154 108.297 116.984Z" fill="#FFA000"/>
</mask>
<g mask="url(#mask0)">
<path d="M50.4805 67.3345C55.035 67.3345 58.7272 63.6589 58.7272 59.1247C58.7272 54.5905 55.035 50.9148 50.4805 50.9148C45.9259 50.9148 42.2337 54.5905 42.2337 59.1247C42.2337 63.6589 45.9259 67.3345 50.4805 67.3345Z" fill="#EAC0B3"/>
<path d="M50.4805 65.6926H78.5195V106.529C78.5195 106.529 72.511 110.026 64.5 110.026C56.4889 110.026 50.4805 104.316 50.4805 104.316V65.6926Z" fill="#EAC0B3"/>
<path d="M78.2084 85.5806C78.2084 94.422 76.7714 93.585 67.4318 93.585C58.0924 93.585 53.7818 86.4175 53.7818 77.5761C53.7818 68.7346 53.4273 60.7667 60.966 60.7667C82.2798 61.5486 78.2084 76.739 78.2084 85.5806Z" fill="#C99688"/>
<path d="M96.4739 57.6456C96.4739 72.296 94.1883 90.3111 76.0454 90.3111C57.9026 90.3111 49.5377 72.296 49.5377 57.6456C45.5324 40.242 46.3571 19.7173 73.5714 19.7173C100.786 19.7173 96.4739 42.9951 96.4739 57.6456Z" fill="#F5D0C5"/>
<path d="M83.4675 65.6926H81.8181C80.9072 65.6926 80.1688 66.4278 80.1688 67.3346C80.1688 68.2414 80.9072 68.9766 81.8181 68.9766H83.4675C84.3784 68.9766 85.1168 68.2414 85.1168 67.3346C85.1168 66.4278 84.3784 65.6926 83.4675 65.6926Z" fill="#EAC0B3"/>
<path d="M83.4675 96.8901H47.1818C38.9836 96.8901 32.3376 103.506 32.3376 111.668V119.878C32.3376 128.039 38.9836 134.656 47.1818 134.656H83.4675C91.6657 134.656 98.3117 128.039 98.3117 119.878V111.668C98.3117 103.506 91.6657 96.8901 83.4675 96.8901Z" fill="#3633E0"/>
<path d="M48.8311 93.6062H80.1688V98.5321C80.1688 98.5321 71.9221 100.174 64.5 100.174C57.0779 100.174 48.8311 98.5321 48.8311 98.5321V93.6062Z" fill="#3633E0"/>
<path d="M48.8311 93.6062H80.1688V96.8902C80.1688 96.8902 75.2208 99.3531 64.5 99.3531C53.7792 99.3531 48.8311 96.8902 48.8311 96.8902V93.6062Z" fill="#362ABC"/>
<path d="M48.0065 95.2482C48.0065 93.4345 49.4833 91.9642 51.3052 91.9642H77.6948C79.5167 91.9642 80.9935 93.4345 80.9935 95.2482C80.9935 95.2482 72.7467 96.8902 64.5 96.8902C56.2532 96.8902 48.0065 95.2482 48.0065 95.2482Z" fill="#3633E0"/>
<path fill-rule="evenodd" clip-rule="evenodd" d="M99.961 39.421C99.961 35.5397 99.1931 31.6965 97.7011 28.1106C96.2091 24.5247 94.0224 21.2665 91.2655 18.5221C88.5087 15.7776 85.2359 13.6006 81.6339 12.1153C78.0319 10.6299 74.1714 9.86548 70.2727 9.86548C66.374 9.86548 62.5135 10.6299 58.9115 12.1153C55.3095 13.6006 52.0366 15.7776 49.2799 18.5221C46.523 21.2665 44.3363 24.5247 42.8443 28.1106C41.4577 31.443 40.6965 34.9976 40.5959 38.5986L40.5844 38.6V39.421V105.1H58.7272V55.1799C62.8254 54.3947 69.9087 52.6677 78.863 49.0113C87.8741 45.3315 93.4975 41.8549 96.4575 39.7558C96.8568 43.9 96.7185 48.2281 96.5901 52.2527C96.53 54.1331 96.472 55.9474 96.472 57.6457C96.472 58.3151 96.4586 58.988 96.4321 59.6631C96.8131 59.5434 97.1693 59.4123 97.485 59.2687C99.959 58.1453 99.959 56.6473 99.959 56.6473V39.421H99.961ZM45.5324 52.5568C45.2209 52.7893 44.9256 53.0442 44.6492 53.3195C43.8834 54.0819 43.276 54.987 42.8615 55.983C42.447 56.979 42.2337 58.0466 42.2337 59.1247C42.2337 60.2029 42.447 61.2705 42.8615 62.2665C43.276 63.2625 43.8834 64.1676 44.6492 64.9299C44.9256 65.2053 45.2209 65.4601 45.5324 65.6926V52.5568Z" fill="#47280B"/>
<path d="M70.2727 58.3038C70.2727 56.9436 71.3804 55.8408 72.7467 55.8408C74.1131 55.8408 75.2208 56.9436 75.2208 58.3038V60.319C75.2208 60.5663 75.0194 60.7667 74.771 60.7667H70.7225C70.4741 60.7667 70.2727 60.5663 70.2727 60.319V58.3038Z" fill="#1B0B47"/>
<path d="M86.7662 58.3038C86.7662 56.9436 87.8739 55.8408 89.2402 55.8408C90.6066 55.8408 91.7143 56.9436 91.7143 58.3038V60.319C91.7143 60.5663 91.5129 60.7667 91.2645 60.7667H87.216C86.9676 60.7667 86.7662 60.5663 86.7662 60.319V58.3038Z" fill="#1B0B47"/>
<path d="M70.7162 64.9337C74.6048 64.9337 77.7572 61.7955 77.7572 57.9242C77.7572 54.053 74.6048 50.9148 70.7162 50.9148C66.8276 50.9148 63.6753 54.053 63.6753 57.9242C63.6753 61.7955 66.8276 64.9337 70.7162 64.9337Z" stroke="black" stroke-width="2"/>
<path d="M93.8071 64.9337C97.6957 64.9337 100.848 61.7955 100.848 57.9242C100.848 54.053 97.6957 50.9148 93.8071 50.9148C89.9185 50.9148 86.7662 54.053 86.7662 57.9242C86.7662 61.7955 89.9185 64.9337 93.8071 64.9337Z" stroke="black" stroke-width="2"/>
<path d="M76.8457 56.011L88.3912 55.8409" stroke="black" stroke-width="2"/>
</g>
</svg>
