<svg width="15" height="13" viewBox="0 0 15 13" fill="none" xmlns="http://www.w3.org/2000/svg">
<path d="M14.625 8.625L9.875 12.8722L1.16825 12.875C0.958843 12.8758 0.757667 12.8021 0.608926 12.6702C0.460185 12.5383 0.376047 12.359 0.375 12.1716V0.828375C0.375 0.440208 0.727292 0.125 1.16113 0.125H13.8389C14.2727 0.125 14.625 0.448 14.625 0.83475V8.625ZM13.0417 1.54167H1.95833V11.4583H8.29167V7.91667C8.29169 7.74317 8.36288 7.57572 8.49173 7.44607C8.62058 7.31642 8.79813 7.23359 8.99071 7.21329L9.08333 7.20833L13.0417 7.20762V1.54167ZM12.3854 8.62429L9.875 8.625V10.8697L12.3854 8.62429Z" fill="#14213D"/>
</svg>
