<svg width="1080" height="1080" viewBox="0 0 1080 1080" fill="none" xmlns="http://www.w3.org/2000/svg">
<g clip-path="url(#clip0)">
<path d="M684.778 186.417C492.519 132.749 244.741 101.609 11.001 204.508V741.117H1091.12V274.979C972.523 275.817 878.986 250.648 798.357 222.329C763.414 210.057 725.34 197.729 684.778 186.417Z" fill="#CECDD3"/>
<path d="M1091.12 553.135H11.121V741.118H1091.12V553.135Z" fill="#ECECEC"/>
<path d="M557.859 721.596C625.785 721.596 680.85 715.232 680.85 707.381C680.85 699.53 625.785 693.166 557.859 693.166C489.933 693.166 434.868 699.53 434.868 707.381C434.868 715.232 489.933 721.596 557.859 721.596Z" fill="#A9A9A9"/>
<path d="M411.181 721.595C354.542 721.595 308.628 728.808 308.628 737.702C308.628 746.596 354.542 753.81 411.181 753.81C467.82 753.81 513.735 746.597 513.735 737.702C513.735 728.807 467.821 721.595 411.181 721.595Z" fill="#A9A9A9"/>
<path d="M251.012 619.742C251.012 619.742 271.529 647.436 304.992 627.634C326.575 614.864 382.511 620.134 403.492 620.134C426.607 620.134 499.992 620.634 474.815 611.679C466.474 608.708 421.975 592.153 432.742 581.386C449.781 564.347 687.942 595.109 640.492 601.244C559.117 611.761 718.228 632.761 764.992 614.761C811.756 596.761 851.122 614.744 851.122 614.744L851.131 470.67H251.012V619.742Z" fill="#A9A9A9"/>
<path d="M11.121 614.134C11.121 614.134 62.096 637.49 98.852 627.517C172.136 607.636 234.752 611.134 272.506 611.134C314.1 611.134 369.206 618.134 406.806 614.134C444.406 610.134 318.761 592.153 338.136 581.386C368.797 564.347 795.645 584.386 711.971 595.636C606.002 609.883 834.726 632.136 918.871 614.136C1003.02 596.136 1090.99 609.136 1090.99 609.136L1091 465.066H11.121V614.134Z" fill="#EFEFEF"/>
<path d="M296.121 479.896H251.121V492.857H296.121C296.972 492.858 297.815 492.691 298.602 492.365C299.389 492.04 300.103 491.562 300.705 490.961C301.307 490.359 301.784 489.644 302.11 488.857C302.435 488.07 302.602 487.227 302.601 486.376C302.604 485.524 302.439 484.68 302.115 483.892C301.791 483.105 301.314 482.389 300.712 481.786C300.109 481.184 299.393 480.707 298.605 480.383C297.817 480.059 296.973 479.893 296.121 479.896V479.896Z" fill="#A1A1A1"/>
<path d="M251.001 468.795H315.981C327.049 468.795 331.76 474.857 330.172 480.016C328.972 483.977 334.192 487.607 340.731 487.695L344.241 487.756C355.76 487.756 360.41 494.327 358.192 499.636H851.121V488.026H636.53C635.453 488.019 634.422 487.585 633.664 486.821C632.905 486.056 632.48 485.022 632.481 483.945C632.487 482.873 632.915 481.847 633.673 481.088C634.431 480.33 635.458 479.902 636.53 479.896H851.121V465.077H251.001V468.795Z" fill="#A1A1A1"/>
<path d="M1090.98 559.859C1090.98 559.859 1072.91 566.421 1075.58 572.445C1082.24 587.468 996.303 578.697 984.816 589.531C970.284 603.242 889.474 602.884 865.796 602.884C803.181 602.884 917.649 563.72 797.75 574.706C781.512 576.195 767.293 572.864 750.515 573.5C561.768 580.636 473.657 563.21 527.015 560.386C564.808 558.386 545.463 547.531 504.971 547.531C487.883 547.531 484.171 556.783 467.178 557.131C452.585 557.431 351.778 542.653 343.002 547.531C323.62 558.294 444.336 560.858 406.729 564.857C369.122 568.856 316.212 574.636 274.613 574.636C236.856 574.636 203.036 566.199 129.743 586.08C92.983 596.052 76.65 573.186 46.956 572.187C35.139 571.787 23.598 586.08 36.156 586.08C53.872 586.08 68.356 581.503 73.7 586.58C80.091 592.647 75.23 599.086 65.954 602.998C50.808 609.381 30.191 611.288 11 609.475V614.133C11 614.133 61.98 637.489 98.738 627.516C172.03 607.635 234.656 611.133 272.411 611.133C314.011 611.133 369.122 618.133 406.726 614.133C444.33 610.133 318.671 592.152 338.048 581.385C368.712 564.346 795.608 584.385 711.924 595.635C605.943 609.882 834.692 632.135 918.849 614.135C1003.01 596.135 1090.98 609.135 1090.98 609.135L1091 465.065H1090.99L1090.98 559.859ZM232.448 589.326C229.97 595.373 216.573 599.755 205.88 597.707C203.197 597.192 162.699 598.625 156.985 593.193C150.925 587.439 235.185 582.652 232.447 589.326H232.448ZM281.134 600.886C276.968 601.414 238.418 598.786 234.694 597.086C231.784 595.762 255.669 594.306 267.415 592.132C271.47 591.382 281.486 590.453 284.508 592.132C285.942 592.932 296.332 598.964 281.132 600.886H281.134ZM798.757 600.886C792.91 602.386 759.541 602.161 740.27 597.386C729.415 594.7 758.718 587.386 785.713 589.637C790.183 590.009 777.535 595.907 776.74 597.076C775.415 599.023 802.158 600.017 798.756 600.886H798.757Z" fill="white"/>
<path d="M325.295 571.507C319.359 570.154 306.258 572.351 301.277 569.849C296.296 567.347 294.498 580.355 304.268 580.472C314.038 580.589 333.003 573.268 325.295 571.507Z" fill="white"/>
<path d="M661.151 703.487H651.413C650.374 703.487 649.377 703.901 648.643 704.636C647.908 705.371 647.496 706.368 647.496 707.407C647.496 707.921 647.597 708.431 647.794 708.906C647.991 709.382 648.279 709.814 648.643 710.178C649.007 710.541 649.438 710.83 649.914 711.027C650.389 711.224 650.899 711.326 651.413 711.326H661.151C661.666 711.326 662.176 711.225 662.651 711.028C663.127 710.831 663.559 710.542 663.923 710.178C664.287 709.814 664.576 709.382 664.773 708.907C664.97 708.431 665.071 707.922 665.071 707.407C665.071 706.367 664.658 705.37 663.923 704.635C663.188 703.9 662.191 703.487 661.151 703.487Z" fill="white"/>
<path d="M476.092 703.487H466.356C465.316 703.487 464.319 703.9 463.584 704.635C462.849 705.37 462.436 706.367 462.436 707.407C462.436 707.922 462.537 708.431 462.734 708.907C462.931 709.382 463.22 709.814 463.584 710.178C463.948 710.542 464.38 710.831 464.856 711.028C465.332 711.225 465.841 711.326 466.356 711.326H476.092C476.607 711.326 477.116 711.225 477.592 711.028C478.067 710.831 478.5 710.542 478.863 710.178C479.227 709.814 479.516 709.382 479.713 708.907C479.91 708.431 480.011 707.922 480.011 707.407C480.011 706.892 479.91 706.382 479.713 705.907C479.516 705.431 479.227 704.999 478.864 704.635C478.5 704.271 478.068 703.982 477.592 703.785C477.116 703.588 476.607 703.487 476.092 703.487V703.487Z" fill="white"/>
<path d="M623.282 537.714H644.001C644.762 537.714 645.493 538.016 646.031 538.555C646.57 539.093 646.872 539.823 646.872 540.585V541.537C646.872 542.298 646.57 543.029 646.031 543.567C645.493 544.105 644.762 544.408 644.001 544.408H623.288C622.526 544.408 621.795 544.105 621.256 543.566C620.717 543.027 620.414 542.296 620.414 541.534V540.582C620.414 539.821 620.716 539.092 621.254 538.554C621.792 538.016 622.521 537.714 623.282 537.714V537.714Z" fill="white"/>
<path d="M504.211 537.722H483.495C482.735 537.723 482.006 538.026 481.469 538.563C480.931 539.101 480.629 539.83 480.627 540.59V541.548C480.629 542.307 480.931 543.035 481.468 543.573C482.005 544.11 482.732 544.413 483.492 544.416H504.208C504.969 544.415 505.699 544.112 506.237 543.574C506.775 543.036 507.078 542.306 507.079 541.545V540.584C507.076 539.825 506.772 539.098 506.235 538.562C505.697 538.025 504.97 537.724 504.211 537.722V537.722Z" fill="white"/>
<path d="M664.005 544.402L463.494 544.425C458.301 544.44 453.326 546.509 449.653 550.18C445.981 553.851 443.911 558.826 443.894 564.019L443.909 688.126C443.922 693.32 445.991 698.298 449.664 701.971C453.337 705.644 458.315 707.713 463.509 707.726L664.025 707.708C669.217 707.692 674.192 705.621 677.862 701.949C681.533 698.276 683.6 693.3 683.613 688.108V563.995C683.594 558.802 681.522 553.827 677.848 550.156C674.175 546.485 669.198 544.417 664.005 544.402V544.402Z" fill="white"/>
<path d="M505.023 544.419H482.704V707.723H505.023V544.419Z" fill="white"/>
<path d="M644.809 544.408H622.491V707.712H644.809V544.408Z" fill="white"/>
<path d="M623.282 537.714H644.001C644.762 537.714 645.493 538.016 646.031 538.555C646.57 539.093 646.872 539.823 646.872 540.585V541.537C646.872 542.298 646.57 543.029 646.031 543.567C645.493 544.105 644.762 544.408 644.001 544.408H623.288C622.526 544.408 621.795 544.105 621.256 543.566C620.717 543.027 620.414 542.296 620.414 541.534V540.582C620.414 539.821 620.716 539.092 621.254 538.554C621.792 538.016 622.521 537.714 623.282 537.714V537.714Z" fill="white"/>
<path d="M504.211 537.722H483.495C482.735 537.723 482.006 538.026 481.469 538.563C480.931 539.101 480.629 539.83 480.627 540.59V541.548C480.629 542.307 480.931 543.035 481.468 543.573C482.005 544.11 482.732 544.413 483.492 544.416H504.208C504.969 544.415 505.699 544.112 506.237 543.574C506.775 543.036 507.078 542.306 507.079 541.545V540.584C507.076 539.825 506.772 539.098 506.235 538.562C505.697 538.025 504.97 537.724 504.211 537.722V537.722Z" fill="white"/>
<path d="M505.023 544.419H482.704V707.723H505.023V544.419Z" fill="white"/>
<path d="M644.809 544.408H622.491V707.712H644.809V544.408Z" fill="white"/>
<path d="M570.855 510.886H556.655C547.764 510.894 539.24 514.43 532.953 520.716C526.666 527.002 523.129 535.526 523.119 544.417H534.003C534.01 538.412 536.399 532.656 540.645 528.411C544.891 524.165 550.648 521.777 556.652 521.771H570.852C576.856 521.777 582.613 524.165 586.86 528.41C591.106 532.656 593.495 538.412 593.502 544.417H604.388C604.378 535.527 600.841 527.004 594.555 520.717C588.268 514.431 579.745 510.896 570.855 510.886Z" fill="white"/>
<path fill-rule="evenodd" clip-rule="evenodd" d="M661.151 703.487H651.413C650.374 703.487 649.377 703.901 648.643 704.636C647.908 705.371 647.496 706.368 647.496 707.407C647.496 707.921 647.597 708.431 647.794 708.906C647.991 709.382 648.279 709.814 648.643 710.178C649.007 710.541 649.438 710.83 649.914 711.027C650.389 711.224 650.899 711.326 651.413 711.326H661.151C661.666 711.326 662.176 711.225 662.651 711.028C663.127 710.831 663.559 710.542 663.923 710.178C664.287 709.814 664.576 709.382 664.773 708.907C664.97 708.431 665.071 707.922 665.071 707.407C665.071 706.367 664.658 705.37 663.923 704.635C663.188 703.9 662.191 703.487 661.151 703.487Z" fill="#BABABA"/>
<path fill-rule="evenodd" clip-rule="evenodd" d="M476.092 703.487H466.356C465.316 703.487 464.319 703.9 463.584 704.635C462.849 705.37 462.436 706.367 462.436 707.407C462.436 707.922 462.537 708.431 462.734 708.907C462.931 709.382 463.22 709.814 463.584 710.178C463.948 710.542 464.38 710.831 464.856 711.028C465.332 711.225 465.841 711.326 466.356 711.326H476.092C476.607 711.326 477.116 711.225 477.592 711.028C478.067 710.831 478.5 710.542 478.863 710.178C479.227 709.814 479.516 709.382 479.713 708.907C479.91 708.431 480.011 707.922 480.011 707.407C480.011 706.892 479.91 706.382 479.713 705.907C479.516 705.431 479.227 704.999 478.864 704.635C478.5 704.271 478.068 703.982 477.592 703.785C477.116 703.588 476.607 703.487 476.092 703.487V703.487Z" fill="#BABABA"/>
<path d="M623.282 537.714H644.001C644.762 537.714 645.493 538.016 646.031 538.555C646.57 539.093 646.872 539.823 646.872 540.585V541.537C646.872 542.298 646.57 543.029 646.031 543.567C645.493 544.105 644.762 544.408 644.001 544.408H623.288C622.526 544.408 621.795 544.105 621.256 543.566C620.717 543.027 620.414 542.296 620.414 541.534V540.582C620.414 539.821 620.716 539.092 621.254 538.554C621.792 538.016 622.521 537.714 623.282 537.714V537.714Z" fill="#070704"/>
<path fill-rule="evenodd" clip-rule="evenodd" d="M504.211 537.722H483.495C482.735 537.723 482.006 538.026 481.469 538.563C480.931 539.101 480.629 539.83 480.627 540.59V541.548C480.629 542.307 480.931 543.035 481.468 543.573C482.005 544.11 482.732 544.413 483.492 544.416H504.208C504.969 544.415 505.699 544.112 506.237 543.574C506.775 543.036 507.078 542.306 507.079 541.545V540.584C507.076 539.825 506.772 539.098 506.235 538.562C505.697 538.025 504.97 537.724 504.211 537.722V537.722Z" fill="#070704"/>
<path fill-rule="evenodd" clip-rule="evenodd" d="M664.005 544.402L463.494 544.425C458.301 544.44 453.326 546.509 449.653 550.18C445.981 553.851 443.911 558.826 443.894 564.019L443.909 688.126C443.922 693.32 445.991 698.298 449.664 701.971C453.337 705.644 458.315 707.713 463.509 707.726L664.025 707.708C669.217 707.692 674.192 705.621 677.862 701.949C681.533 698.276 683.6 693.3 683.613 688.108V563.995C683.594 558.802 681.522 553.827 677.848 550.156C674.175 546.485 669.198 544.417 664.005 544.402V544.402Z" fill="url(#paint0_linear)"/>
<path d="M505.023 544.419H482.704V707.723H505.023V544.419Z" fill="#070704"/>
<path d="M644.809 544.408H622.491V707.712H644.809V544.408Z" fill="#070704"/>
<path d="M623.282 537.714H644.001C644.762 537.714 645.493 538.016 646.031 538.555C646.57 539.093 646.872 539.823 646.872 540.585V541.537C646.872 542.298 646.57 543.029 646.031 543.567C645.493 544.105 644.762 544.408 644.001 544.408H623.288C622.526 544.408 621.795 544.105 621.256 543.566C620.717 543.027 620.414 542.296 620.414 541.534V540.582C620.414 539.821 620.716 539.092 621.254 538.554C621.792 538.016 622.521 537.714 623.282 537.714V537.714Z" fill="#A9A9A9"/>
<path fill-rule="evenodd" clip-rule="evenodd" d="M504.211 537.722H483.495C482.735 537.723 482.006 538.026 481.469 538.563C480.931 539.101 480.629 539.83 480.627 540.59V541.548C480.629 542.307 480.931 543.035 481.468 543.573C482.005 544.11 482.732 544.413 483.492 544.416H504.208C504.969 544.415 505.699 544.112 506.237 543.574C506.775 543.036 507.078 542.306 507.079 541.545V540.584C507.076 539.825 506.772 539.098 506.235 538.562C505.697 538.025 504.97 537.724 504.211 537.722V537.722Z" fill="#A9A9A9"/>
<path d="M505.023 544.419H482.704V707.723H505.023V544.419Z" fill="#CECDD3"/>
<path d="M644.809 544.408H622.491V707.712H644.809V544.408Z" fill="#CECDD3"/>
<path d="M570.855 510.886H556.655C547.764 510.894 539.24 514.43 532.953 520.716C526.666 527.002 523.129 535.526 523.119 544.417H534.003C534.01 538.412 536.399 532.656 540.645 528.411C544.891 524.165 550.648 521.777 556.652 521.771H570.852C576.856 521.777 582.613 524.165 586.86 528.41C591.106 532.656 593.495 538.412 593.502 544.417H604.388C604.378 535.527 600.841 527.004 594.555 520.717C588.268 514.431 579.745 510.896 570.855 510.886Z" fill="#A9A9A9"/>
<path fill-rule="evenodd" clip-rule="evenodd" d="M815.601 395.222C819.261 393.193 822.31 390.221 824.434 386.615C826.557 383.01 827.677 378.901 827.677 374.717C827.677 368.495 825.205 362.528 820.806 358.128C816.406 353.728 810.439 351.256 804.217 351.256C801.136 351.256 798.085 351.862 795.239 353.041C792.392 354.22 789.806 355.948 787.627 358.127C785.448 360.305 783.72 362.892 782.541 365.738C781.362 368.585 780.756 371.636 780.756 374.717C780.759 377.71 781.336 380.675 782.456 383.451C772.163 383.866 762.289 387.638 754.341 394.19C746.393 400.743 740.807 409.716 738.437 419.741C735.781 416.283 732.365 413.483 728.454 411.556C724.544 409.629 720.242 408.627 715.882 408.628C712.137 408.628 708.428 409.365 704.968 410.798C701.508 412.231 698.364 414.332 695.715 416.98C693.067 419.628 690.966 422.772 689.532 426.232C688.099 429.692 687.361 433.401 687.361 437.146C687.362 442.356 688.799 447.464 691.512 451.912L679.055 452.275C678.612 446.379 675.957 440.867 671.623 436.845C667.289 432.823 661.595 430.588 655.682 430.586C642.859 430.586 641.216 444.564 632.242 453.652C629.3 456.634 618.997 456.452 615.499 454.144C609.874 450.438 606.929 443.444 599.787 443.444C592.287 443.444 589.487 450.912 583.732 455.08C567.953 466.515 521.561 466.515 505.782 455.08C500.025 450.912 497.224 443.444 489.727 443.444C482.585 443.444 479.637 450.444 474.015 454.144C470.52 456.45 460.215 456.634 457.272 453.652C448.299 444.564 446.655 430.586 433.832 430.586C427.92 430.588 422.226 432.824 417.892 436.846C413.559 440.868 410.905 446.379 410.462 452.275L398.002 451.912C400.715 447.464 402.152 442.356 402.153 437.146C402.153 433.401 401.416 429.693 399.983 426.233C398.55 422.773 396.449 419.629 393.801 416.981C391.153 414.332 388.009 412.232 384.549 410.799C381.089 409.366 377.381 408.628 373.636 408.628C369.275 408.626 364.972 409.628 361.059 411.555C357.147 413.482 353.73 416.283 351.073 419.741C348.703 409.716 343.117 400.743 335.169 394.19C327.221 387.637 317.347 383.866 307.054 383.451C308.176 380.676 308.753 377.71 308.754 374.717C308.754 371.636 308.147 368.585 306.968 365.738C305.789 362.891 304.061 360.305 301.882 358.126C299.703 355.947 297.116 354.219 294.269 353.041C291.422 351.862 288.371 351.255 285.29 351.256C279.068 351.256 273.101 353.728 268.701 358.128C264.301 362.527 261.829 368.495 261.829 374.717C261.829 378.901 262.949 383.01 265.072 386.615C267.196 390.221 270.245 393.193 273.905 395.222C268.877 399.64 264.849 405.079 262.09 411.178C259.331 417.276 257.904 423.892 257.905 430.586C257.905 444.294 250.997 465.23 250.997 465.23H851.13C851.13 465.23 848.991 417.634 815.601 395.222Z" fill="white"/>
<path fill-rule="evenodd" clip-rule="evenodd" d="M347.956 449.035L348.413 449.046C348.331 448.891 348.26 448.724 348.181 448.566C348.108 448.724 348.026 448.876 347.956 449.035Z" fill="white"/>
<path fill-rule="evenodd" clip-rule="evenodd" d="M741.094 449.046L741.553 449.035C741.477 448.876 741.398 448.724 741.325 448.566C741.243 448.724 741.178 448.891 741.094 449.046Z" fill="white"/>
<path fill-rule="evenodd" clip-rule="evenodd" d="M733.271 365.152C729.789 362.769 725.504 361.867 721.357 362.644C717.21 363.421 713.541 365.813 711.158 369.294C708.775 372.776 707.872 377.062 708.649 381.209C709.426 385.356 711.818 389.025 715.3 391.408C718.781 393.791 723.067 394.693 727.213 393.916C731.36 393.139 735.028 390.747 737.411 387.265C739.794 383.784 740.697 379.498 739.92 375.351C739.144 371.204 736.752 367.536 733.271 365.152V365.152Z" fill="white"/>
<path fill-rule="evenodd" clip-rule="evenodd" d="M772.343 308.07C771.224 307.303 769.964 306.764 768.636 306.484C767.309 306.204 765.939 306.188 764.605 306.438C763.271 306.688 761.999 307.198 760.863 307.939C759.726 308.681 758.747 309.639 757.981 310.759C756.434 313.02 755.849 315.803 756.354 318.495C756.858 321.188 758.412 323.57 760.672 325.117C761.792 325.884 763.051 326.422 764.379 326.702C765.707 326.981 767.077 326.997 768.41 326.747C769.744 326.497 771.015 325.987 772.152 325.246C773.288 324.505 774.268 323.547 775.034 322.427C775.8 321.308 776.339 320.048 776.618 318.721C776.897 317.394 776.913 316.024 776.663 314.691C776.413 313.358 775.903 312.087 775.162 310.951C774.42 309.815 773.463 308.836 772.343 308.07V308.07Z" fill="white"/>
<path fill-rule="evenodd" clip-rule="evenodd" d="M360.143 370.865C358.177 372.211 356.827 374.283 356.388 376.625C355.95 378.967 356.459 381.387 357.805 383.354C359.151 385.32 361.223 386.672 363.565 387.111C365.907 387.55 368.327 387.04 370.294 385.695C372.259 384.348 373.61 382.276 374.048 379.934C374.487 377.592 373.977 375.172 372.632 373.206C371.286 371.239 369.214 369.888 366.872 369.449C364.53 369.01 362.11 369.519 360.143 370.865V370.865Z" fill="white"/>
<path fill-rule="evenodd" clip-rule="evenodd" d="M312.243 309.59C310.18 311.002 308.416 312.806 307.051 314.9C305.685 316.994 304.746 319.336 304.286 321.793C303.826 324.25 303.854 326.773 304.369 329.219C304.885 331.665 305.877 333.986 307.289 336.048C310.14 340.214 314.53 343.076 319.491 344.006C324.453 344.936 329.581 343.856 333.747 341.005C337.912 338.153 340.774 333.763 341.703 328.8C342.632 323.838 341.552 318.71 338.701 314.544C335.849 310.379 331.459 307.517 326.498 306.588C321.536 305.659 316.409 306.739 312.243 309.59V309.59Z" fill="white"/>
<path d="M834.732 330.083C829.851 310.617 811.549 272.659 806.294 244.431C801.039 216.203 802.005 218.946 802.005 218.946C802.005 218.946 806.888 213.446 807.981 206.902C809.074 200.358 804.603 181.085 804.481 174.968C804.359 168.851 783.73 161.837 782.154 174.71C780.578 187.583 780.396 211.079 786.923 218.843C786.923 218.843 790.466 225.192 793.448 226.613C793.448 226.613 797.465 243.655 799.111 256.913C800.757 270.171 814.579 326.317 816.383 340.039C818.187 353.761 831.964 429.917 839.376 463.706C846.788 497.495 862.511 571.935 870.184 603.576L887.03 597.576C887.03 597.576 858.553 479.617 852.858 450.183C847.163 420.749 839.61 349.551 834.732 330.083Z" fill="#A1A1A1"/>
<path d="M789.386 260.793C790.06 261.793 790.456 262.393 790.456 262.393C790.143 261.886 789.776 261.344 789.386 260.793Z" fill="#A1A1A1"/>
<path d="M763.801 234.599C762.633 233.688 763.429 234.406 765.351 236.14C764.935 235.674 764.557 235.279 764.229 234.974C764.093 234.841 763.95 234.716 763.801 234.599V234.599Z" fill="#A1A1A1"/>
<path d="M784.889 263.723C785.903 265.264 786.507 266.193 786.507 266.193C786.029 265.39 785.475 264.561 784.889 263.723Z" fill="#A1A1A1"/>
<path d="M766.491 229.191C766.491 229.191 767.305 230.017 768.638 231.391C768.029 230.561 767.306 229.82 766.491 229.191Z" fill="#A1A1A1"/>
<path d="M766.491 229.191C767.306 229.82 768.029 230.561 768.638 231.391C774.53 237.435 790.738 254.243 793.749 259.167C793.749 259.167 777.849 233.705 772.79 228.151C772.79 228.151 785.411 240.11 789.477 244.815L770.619 221.571L788.903 238.832L773.979 221.401L787.807 232.381L773.827 219.057L787.705 227.287L774.543 216.749L786.479 222.417L775.341 214.923C776.769 211.256 779.151 208.037 782.241 205.601C782.241 205.601 743.173 222.368 730.822 282.262C731.856 277.581 733.933 269.785 736.734 267.151C736.734 267.151 729.726 293.585 726.38 304.351C723.034 315.117 730.107 295.843 730.107 295.843C730.107 295.843 726.207 310.825 726.46 314.072C726.46 314.072 729.606 305.256 730.309 303.972C730.309 303.972 728.086 315.029 727.918 319.962C727.918 319.962 729.539 312.972 730.608 311.308C730.608 311.308 729.89 321.181 731.165 325.47C731.165 325.47 731.115 317.413 731.882 313.804C731.882 313.804 732.667 326.091 733.775 329.932C734.883 333.773 744.627 340.948 744.627 340.948C744.627 340.948 749.95 332.123 742.494 312.978C742.494 312.978 746.467 318.743 746.507 320.654C746.507 320.654 746.352 311.217 743.865 305.308C743.865 305.308 746.616 309.073 746.607 310.485C746.584 307.544 746.229 304.615 745.549 301.754C746.407 303.141 747.177 304.581 747.855 306.064C747.855 306.064 747.767 280.956 748.013 281.642C748.259 282.328 750.213 297.916 751.79 304.151C751.79 304.151 750.495 292.942 751.18 289.107C751.18 289.107 751.08 298.892 753.292 306.568C753.292 306.568 752.839 295.573 753.802 292.148C753.802 292.148 752.774 297.902 755.493 309.503C755.493 309.503 754.781 298.857 755.018 295.567C755.018 295.567 756.19 304.256 757.718 310.376C757.718 310.376 756.564 300.276 756.76 298.66C756.76 298.66 758.527 310.022 760.651 314.466C760.724 314.618 760.8 314.766 760.874 314.9C760.874 314.9 758.257 306.468 758.928 300.069C758.928 300.069 760.378 311.355 762.528 315.591C762.528 315.591 761.081 308.284 762.109 304.323C762.109 304.323 764.157 314.756 766.524 318.53C766.524 318.53 763.653 310.83 764.045 303.638C764.045 303.638 770.502 313.138 772.75 320.158C772.75 320.158 769.289 307.927 766.043 302.416C766.043 302.416 772.412 307.499 775.114 310.857C772.814 307.411 767.321 299.279 765.765 298.025L778.272 307.933L762.607 293.12L778.643 304.994L761.888 289.279L779.243 300.924L762.087 285.875L777.21 294.854L761.088 281.996L776.345 289.906L764.023 281.591L774.848 285.691L761.893 276.322L775.399 282.738L760.305 271.499L774.582 278.279L759.951 269.059L772.296 274.927L760.384 265.956L770.697 269.34L759.737 264.134L768.927 265.098L758.999 260.378L767.208 261.943L759.675 252.316C766.056 256.981 771.483 262.826 775.663 269.534C772.314 263.665 764.404 249.943 761.75 246.615C761.75 246.615 780.133 266.068 783.45 271.555C783.45 271.555 766.299 244.992 762.339 240.591C762.339 240.591 777.523 253.212 784.885 263.721C780.837 257.56 770.243 241.637 765.347 236.138C763.425 234.404 762.629 233.686 763.797 234.597C763.946 234.714 764.089 234.839 764.225 234.972C764.553 235.277 764.931 235.672 765.347 236.138C770.489 240.787 783.728 252.787 789.382 260.791C785.764 255.38 773.852 237.673 768.634 231.391C767.305 230.017 766.491 229.191 766.491 229.191Z" fill="#A1A1A1"/>
<path d="M789.477 244.812L790.426 245.984C790.213 245.679 789.87 245.269 789.477 244.812Z" fill="#A1A1A1"/>
<path d="M775.664 269.536C776.601 271.179 777.202 272.243 777.202 272.243C776.716 271.308 776.197 270.412 775.664 269.536Z" fill="#A1A1A1"/>
<path d="M730.825 282.262C730.345 284.433 730.087 285.939 730.087 285.939C730.315 284.685 730.573 283.481 730.825 282.262Z" fill="#A1A1A1"/>
<path d="M775.122 310.865C775.752 311.808 776.153 312.423 776.153 312.423C775.876 311.862 775.529 311.339 775.122 310.865V310.865Z" fill="#A1A1A1"/>
<path d="M652.453 345.042C652.453 345.042 657.026 220.496 785.165 216.072L783.278 210.763C783.278 210.763 655.415 212.134 652.453 345.042Z" fill="#A1A1A1"/>
<path d="M639.911 303.329L653.399 290.061L632.08 316.636L643.957 306.763L631.52 322.991L646.227 313.138L632.979 327.089L644.645 318.066L634.356 330.959L644.185 321.816L634.368 335.316L646.343 322.844L635.256 337.824L652.231 319.211L634.098 344.647L644.498 333.508L635.316 348.066L644.477 336.339L636.854 352.39L646.115 338.061L638.149 356.032L647.969 338.943L641.237 357.5L650.747 340.261L644.372 361.255L652.607 340.469L648.347 365.228L653.153 341.966L673.034 278.201L677.634 262.994C677.634 262.994 648.785 288.628 639.911 303.329Z" fill="#A1A1A1"/>
<path d="M736.072 222.037C736.072 222.037 714.181 231.4 704.272 239.717C694.363 248.034 664.443 273.209 658.008 309.839C651.573 346.469 651.275 351.06 651.275 351.06L655.883 364.003L652.4 350.662L658.069 363.224L653.425 347.773C653.425 347.773 662.37 364.255 662.209 363.801C662.048 363.347 653.771 342.265 653.771 342.265C653.771 342.265 662.743 360.017 662.528 359.417C662.313 358.817 656.575 339.817 656.575 339.817L664.998 358.195L657.433 336.942L666.627 355.554L658.054 334.839L669.543 348.875L660.394 332.292L668.814 342.98L661.622 327.58L671.788 341.362L670.73 334.427L678.722 341.502L677.738 328.169L682.194 336.844L679.009 325.495L683.48 329.889L678.942 317.139L684.415 325.79L679.343 306.734L687.285 321.353L679.718 300.101L683.658 303.488L683.28 294.731L691.495 317.805L686.221 299.158L695.198 319.566L687.092 296.799L697.592 319.05L687.22 289.917L699.753 317.951L688.019 284.983L698.569 309.818L696.108 299.066L693.263 264.166L698.657 301.417L696.272 266.852L703.192 301.671L699.799 270.042L705.553 293.887L699.791 259.443L708.291 292.915C708.291 292.915 708.991 270.878 706.422 264.608L715.577 290.325C715.577 290.325 704.943 247.006 705.266 247.917C705.518 248.638 712.013 269.585 715.045 281.252C712.79 270.933 708.764 251.917 708.597 246.713L721.532 288.198L717.032 270.409L723.304 283.22L718.359 265.487L723.439 279.754L718.573 245.917L725.05 271.794L723.95 244.686L729.461 260.167C729.461 260.167 734.986 241.1 732.891 233.295L737.104 245.134L734.415 227.963L739.096 241.115L736.072 222.037Z" fill="#A1A1A1"/>
<path d="M715.043 281.249C715.931 285.306 716.543 288.019 716.543 288.019C716.171 285.736 715.67 283.476 715.043 281.249Z" fill="#A1A1A1"/>
<path d="M761.534 162.898C751.977 159.117 743.243 160.517 740.92 161.685C738.597 162.853 716.654 151.173 710.302 154.46C703.95 157.747 689.009 171.271 682.01 177.186C675.011 183.101 675.202 188.445 675.433 191.981C675.664 195.517 676.939 188.808 676.939 188.808L675.202 202.865L679.202 193.917L677.69 209.849L682.017 197.02L679.984 212.451C679.984 212.451 684.092 201.412 685.427 200.591C685.427 200.591 684.651 206.345 686.576 210.791C687.869 213.64 689.636 216.249 691.802 218.507L688.02 207.884L692.901 216.064L692.292 201.87C692.292 201.87 695.592 219.553 696.165 216.955C696.738 214.357 695.749 205.819 695.749 205.819L698.019 212.191L699.156 202.891L700.143 211.431L703.469 204.431L706.756 210.783L706.679 201.917L712.436 209.447L710.171 198.279L715.271 213.566L713.1 192.106L718.243 209.433L716.271 193.333L719.216 212.169L723.916 192.712L723.16 210.765L725.975 193.688L729.535 208.495L730.947 194.995L734.07 206.881L733.988 196.99L735.054 206.532L737.006 194.889L738.986 207.182L739.543 194.332L745.484 211.026L745.909 201.639L748.824 209.839L750.093 201.865L753.441 211.275L752.255 203.148L757.127 212.98L759.356 208.28L761.908 215.44L774.924 213.74L783.142 203.708L781.692 179.301C781.692 179.301 771.088 166.68 761.534 162.898Z" fill="#A1A1A1"/>
<path d="M890.683 128.89L908.143 135.163L890.643 126.854L907.164 132.432L889.672 124.117L906.085 129.39L889.415 121.471L890.261 121.571L901.878 122.854L888.978 119.291L900.255 118.301L885.167 118.201L899.299 115.617L881.982 116.938L897.77 111.317L880.491 113.707L892.028 109.6L878.218 112.123L893.786 105.897L875.551 111.361L891.404 104.01C891.404 104.01 873.495 110.385 872.651 108.976C871.807 107.567 889.892 99.7587 889.892 99.7587L868.037 107.54L883.561 99.2757L865.567 106.369L880.681 97.9077C874.002 100.287 859.362 107.203 859.362 107.203C861.862 104.603 870.862 101.06 870.862 101.06C858.071 103.56 852.194 107.707 852.194 107.707C823.562 128.163 801.601 175.996 801.601 175.996L810.519 163.585L822.437 191.294L812.42 163.167L824.938 192.567L815.686 162.256L825.723 186.133L819.17 160.504L833.815 187.238L825.187 155.793L835.875 181.493L826.869 151.147L842.59 180.895L830.021 149.201L846.808 174.017L832.526 148.317L848.311 170.317L836.563 148.841L851.095 164.193L842.707 148.317L854.294 161.169L842.543 142.097C845.206 142.859 860.267 156.822 861.003 157.926C861.739 159.03 849.545 140.626 849.545 140.626L862.309 154.381L854.343 138.751L868.154 156.406L861.925 143.234L870.052 154.534L862.538 128.134L873.331 150.289L864.524 125.55L876.606 146.043L868.889 127.243L880.875 150.337L871.456 128.209L874.256 133.199C874.256 133.199 878.548 142.618 880.517 144.308C882.486 145.998 889.045 147.598 889.045 147.598L887.445 135.176L893.064 150.955L890.348 137.561L897.482 152.807L890.682 133.682L906.057 143.253L890.857 131.303L908.183 142.503L890.683 128.89Z" fill="#A1A1A1"/>
<path d="M977.909 168.3L997.954 174.64L974.575 164.697L991.157 168.028C984.896 165.286 973.435 161.316 971.376 160.607C970.216 160.554 969.345 160.522 968.985 160.531C968.745 160.531 968.601 160.537 968.513 160.539L971.024 160.487L971.376 160.607C976.79 160.865 988.883 161.656 988.883 161.656L944.843 153.248L984.987 155.517L941.355 151.128L973.977 149.517L934.687 147.768C934.687 147.768 971.645 145.896 972.556 145.568C973.467 145.24 926.8 145.78 926.8 145.78L948.961 137.893L920.061 145.103C920.061 145.103 927.415 140.776 913.961 145.252C900.507 149.728 859.143 159.444 845.209 164.638C831.275 169.832 806.135 188.747 806.135 188.747L806.422 202.525C814.128 187.665 841.045 171.274 841.045 171.274L858.014 201.406L852.293 175.736L862.293 196.121L855.808 173.117L869.05 195.426L861.269 173.568L878.525 192.737L871.265 172.337L883.013 192.845L875.213 170.934L889.627 192.203L877.709 167.375C877.709 167.375 897.923 193.065 899.16 195.098C897.716 192.517 881.66 161.175 881.66 161.175C884.669 163.868 906.671 194.685 906.671 194.685C906.489 192.017 893.425 164.451 893.425 164.451C895.268 165.877 907.174 185.656 912.108 195.039C907.96 183.945 899.218 157.663 899.218 157.663C901.818 160.163 921.067 199.824 921.758 201.763C922.449 203.702 917.103 184.838 917.103 184.838C917.103 184.838 923.282 193.557 924.041 195.684C924.8 197.811 911.223 159.684 911.223 159.684L930.955 194.931L914.566 158.498L942.706 194.307L931.031 154.8L948.184 195.294L937.731 162.077L953.15 193.871L945.981 167.011L958.895 195.59L947.572 159.945L965.399 201.382C965.399 201.382 952.658 164.629 952.336 163.717C952.014 162.805 970.866 199.436 970.866 199.436L958.579 164.917L972.685 198.782L964.985 169.476L978.718 203.237L970.667 172.929L984.937 203.417L975.537 177.009L991.682 204.097L987.276 187.878L996.133 197.378L989.074 186.217L998.185 189.717L987.779 182.581L998.05 186.445L987.023 178.531L997.456 182.372L981.043 172.311L999.31 178.466L977.909 168.3Z" fill="#A1A1A1"/>
<path d="M968.513 160.539C968.601 160.539 968.745 160.534 968.985 160.531C969.345 160.522 970.216 160.554 971.376 160.607L971.024 160.487L968.513 160.539Z" fill="#A1A1A1"/>
<path d="M914.238 199.859C914.344 199.519 913.503 197.694 912.108 195.039C913.309 198.253 914.13 200.204 914.238 199.859Z" fill="#A1A1A1"/>
<path d="M899.267 195.271C899.258 195.248 899.188 195.148 899.159 195.098C899.243 195.245 899.285 195.317 899.267 195.271Z" fill="#A1A1A1"/>
<path fill-rule="evenodd" clip-rule="evenodd" d="M394.204 301.636C388.128 322.273 414.604 329.946 457.772 323.477C470.15 321.623 500.742 321.634 526.242 332.386C551.742 343.138 570.492 316.886 570.492 316.886C570.492 316.886 409.116 251.011 394.204 301.636Z" fill="#A9A9A9"/>
<path fill-rule="evenodd" clip-rule="evenodd" d="M521.68 351.256C523.714 317.881 513.48 301.724 508.368 292.449C496.013 270.037 469.605 273.117 457.813 276.778C423.413 287.456 427.359 348.157 427.544 358.49C427.924 379.815 419.563 414.628 419.563 414.628C458.341 423.464 540.556 408.228 540.556 408.228C526.511 392.638 519.987 378.986 521.68 351.256Z" fill="white"/>
<path fill-rule="evenodd" clip-rule="evenodd" d="M521.68 351.256C523.714 317.881 513.48 301.724 508.368 292.449C497.243 272.263 474.75 272.767 461.768 275.738C475.154 283.952 485.399 298.457 489.468 313.475C493.888 329.808 499.118 347.509 496.261 364.499C493.128 383.117 480.243 403.135 465.129 417.042C501.922 415.384 540.556 408.224 540.556 408.224C526.511 392.638 519.987 378.986 521.68 351.256Z" fill="#FFF7F3"/>
<path fill-rule="evenodd" clip-rule="evenodd" d="M435.492 492.857C435.492 492.857 407.292 505.994 398.452 522.69C389.612 539.386 434.083 539.562 446.545 537.722C456.278 536.284 478.087 529.384 473.212 508.135C468.337 486.886 435.492 492.857 435.492 492.857Z" fill="#727272"/>
<path fill-rule="evenodd" clip-rule="evenodd" d="M484.992 508.135C484.992 508.135 405.621 527.89 393.07 551.673C383.505 569.799 408.389 677.594 407.692 686.873C407.502 689.389 403.087 721.197 402.917 725.547C402.741 729.995 400.594 740.407 406.549 741.336C411.697 742.136 423.055 732.514 424.963 728.691C427.939 722.738 424.101 710.412 423.805 698.823C423.577 689.87 425.833 684.734 424.995 680.114C424.371 676.686 421.687 676.955 420.695 669.083C417.657 644.975 427.785 624.2 426.434 592.983C426.168 586.863 423.891 581.097 425.626 574.312C426.874 567.875 506.582 554.021 508.416 546.978C514.491 523.636 484.992 508.135 484.992 508.135Z" fill="#E6E6E6"/>
<path fill-rule="evenodd" clip-rule="evenodd" d="M460.043 547.859C446.09 549.165 438.461 550.768 434.684 553.135C421.934 561.135 394.202 556.635 410.069 602.492C413.561 612.592 412.931 654.939 414.953 665.149C419.259 686.899 418.114 711.326 422.233 732.149C423.296 731.126 424.214 729.963 424.961 728.692C427.937 722.739 424.099 710.413 423.803 698.824C423.575 689.871 425.831 684.735 424.993 680.115C424.369 676.687 421.685 676.956 420.693 669.084C417.655 644.976 427.783 624.201 426.432 592.984C426.166 586.864 423.889 581.098 425.624 574.313C426.872 567.876 506.58 554.022 508.414 546.979C509.921 541.197 509.318 535.068 506.714 529.691C495.266 541.167 475.171 546.438 460.043 547.859Z" fill="#727272"/>
<path fill-rule="evenodd" clip-rule="evenodd" d="M418.582 456.769C398.604 457.759 385.951 465.488 375.433 464.761C372.97 464.591 370.948 464.222 368.915 462.256C364.608 458.09 359.815 456.605 354.553 456.145C349.696 455.714 354.547 460.194 348.738 460.445C345.301 460.594 335.223 459.885 334.801 461.186C333.934 463.834 337.001 464.127 340.535 464.274C340.326 464.666 340.221 465.104 340.228 465.548C340.236 465.992 340.357 466.426 340.579 466.81C340.801 467.194 341.118 467.515 341.499 467.743C341.88 467.971 342.312 468.098 342.756 468.112C342.685 468.598 342.716 469.093 342.847 469.566C342.978 470.039 343.205 470.479 343.516 470.859C343.826 471.239 344.213 471.551 344.65 471.773C345.087 471.996 345.566 472.125 346.056 472.152C345.907 475.052 347.937 476.11 351.74 475.817C355.794 475.503 362.217 476.341 373.2 475.711C387.588 474.891 397.068 476.602 407.378 475.711C416.366 474.938 428.778 475.536 441.939 469.843C444.371 468.791 438.951 455.843 438.725 454.184C431.868 454.753 425.335 456.432 418.582 456.769Z" fill="#E6E6E6"/>
<path fill-rule="evenodd" clip-rule="evenodd" d="M417.301 467.949C408.901 469.657 402.272 470.439 393.747 471.596C380.062 473.456 368.847 473.656 359.165 464.196C355.875 463.975 352.792 462.509 350.545 460.096C349.968 460.319 349.357 460.439 348.738 460.451C345.301 460.6 335.226 459.891 334.801 461.189C333.934 463.84 337.001 464.133 340.535 464.28C340.326 464.671 340.22 465.109 340.228 465.553C340.235 465.996 340.356 466.431 340.578 466.815C340.8 467.199 341.116 467.52 341.497 467.748C341.877 467.976 342.31 468.103 342.753 468.118C342.683 468.603 342.714 469.098 342.845 469.571C342.976 470.043 343.204 470.484 343.514 470.864C343.825 471.244 344.211 471.555 344.648 471.778C345.085 472 345.563 472.13 346.053 472.158C345.904 475.058 347.934 476.116 351.737 475.82C355.791 475.509 362.214 476.347 373.197 475.72C387.585 474.9 397.065 476.611 407.375 475.72C416.363 474.947 428.775 475.545 441.936 469.852C443.011 469.386 442.551 466.594 441.681 463.48C433.819 465.754 425.607 466.258 417.301 467.949Z" fill="#727272"/>
<path fill-rule="evenodd" clip-rule="evenodd" d="M345.02 450.5C345.058 453.33 347.226 455.4 351.102 455.811C352.868 457.855 355.229 459.294 357.855 459.927L364.11 458.679L354.126 452.979C351.001 452.527 347.943 451.695 345.02 450.5V450.5Z" fill="#E6E6E6"/>
<path fill-rule="evenodd" clip-rule="evenodd" d="M346.227 460.9C343.283 460.499 340.32 460.259 337.35 460.179C335.78 460.112 334.843 460.839 334.921 461.615C334.995 462.371 335.358 463.164 337.3 463.315C340.395 463.562 343.504 463.566 346.6 463.327C349.219 463.156 349.966 461.366 346.227 460.9Z" fill="#E6E6E6"/>
<path fill-rule="evenodd" clip-rule="evenodd" d="M353.51 464.222C349.535 464.005 345.876 464.254 341.929 464.055C340.359 463.979 340.148 464.79 340.28 465.623C340.409 466.428 340.825 467.251 342.77 467.257C346.527 467.273 350.281 467.026 354.003 466.517C356.601 466.117 357.266 464.417 353.51 464.222Z" fill="#E6E6E6"/>
<path fill-rule="evenodd" clip-rule="evenodd" d="M354.507 467.638C350.941 467.609 347.885 468.025 344.341 468.007C342.934 467.999 342.764 468.998 342.893 469.818C343.013 470.618 343.393 471.418 345.143 471.335C348.525 471.177 351.89 470.758 355.207 470.081C357.53 469.572 357.882 467.673 354.507 467.638Z" fill="#E6E6E6"/>
<path fill-rule="evenodd" clip-rule="evenodd" d="M356.176 471.787C352.611 471.757 350.839 471.857 347.299 471.836C345.89 471.831 345.712 472.651 345.841 473.474C345.961 474.274 346.341 475.074 348.091 474.989C350.965 474.934 353.828 474.619 356.645 474.048C358.969 473.541 359.543 471.817 356.176 471.787Z" fill="#E6E6E6"/>
<path fill-rule="evenodd" clip-rule="evenodd" d="M493.943 369.048C479.989 372.877 483.118 357.409 481.301 343.876L462.335 350.556C464.69 363.271 466.492 372.294 456.223 376.279C450.293 378.579 440.157 380.246 435.563 382.579C417.089 391.936 427.263 446.419 427.263 461.179L442.383 469.297C445.983 456.852 446.705 440.78 446.705 425.674L510.358 412.851L531.212 385.59C526.01 363.757 510.586 364.484 493.943 369.048Z" fill="#E6E6E6"/>
<path d="M476.411 401.855C475.269 403.327 474.402 404.992 473.85 406.771C473.241 408.648 472.97 410.618 473.05 412.589L478.939 411.435C478.497 410.188 478.276 408.873 478.286 407.55C478.273 406.117 478.52 404.694 479.015 403.35C479.529 401.927 480.314 400.616 481.327 399.492C482.397 398.291 483.632 397.247 484.995 396.392C483.368 396.821 481.81 397.477 480.366 398.34C478.836 399.25 477.494 400.443 476.411 401.855V401.855Z" fill="#727272"/>
<path d="M475.248 402.35C474.166 400.935 472.824 399.739 471.293 398.828C469.849 397.966 468.292 397.31 466.667 396.88C468.028 397.737 469.263 398.781 470.335 399.98C471.347 401.106 472.13 402.417 472.643 403.841C473.14 405.185 473.388 406.608 473.376 408.041C473.385 409.363 473.164 410.677 472.722 411.923L478.611 413.077C478.688 411.106 478.417 409.136 477.811 407.259C477.256 405.483 476.388 403.82 475.248 402.35V402.35Z" fill="#727272"/>
<path fill-rule="evenodd" clip-rule="evenodd" d="M507.964 391.238C507.964 391.238 527.648 437.838 534.398 448.425L557.522 452.58C552.949 434.398 538.866 394.449 527.633 376.18L507.964 391.238Z" fill="#E6E6E6"/>
<path fill-rule="evenodd" clip-rule="evenodd" d="M493.943 369.048C479.989 372.877 483.118 357.409 481.301 343.876L462.335 350.556C462.797 353.04 463.235 355.378 463.565 357.57C468.689 365.281 478.865 377.21 487.829 376.112C492.674 375.512 497.517 371.503 502.688 369.259C506.426 367.636 517.158 368.064 521.081 369.283C513.615 364.636 503.121 366.532 493.943 369.048Z" fill="#727272"/>
<path fill-rule="evenodd" clip-rule="evenodd" d="M438.46 427.557C438.249 430.595 438.044 433.703 437.96 436.935C437.711 446.31 436.682 456.664 434.45 465.268L442.392 469.296C445.272 459.324 446.359 447.025 446.549 434.486C444.161 433.625 438.984 428.439 438.46 427.557Z" fill="#727272"/>
<path fill-rule="evenodd" clip-rule="evenodd" d="M482.475 291.956C478.297 289.847 472.91 289.106 466.04 290.316C449.484 293.246 445.775 307.496 446.868 321.631C447.492 329.597 447.999 336.505 451.708 342.754C453.508 345.722 464.437 358.49 472.208 358.49C480.68 358.451 490.873 344.199 492.355 340.255C494.034 335.805 494.699 330.3 494.971 322.138C495.009 321.552 495.009 321.007 495.009 320.459C495.126 308.123 491.843 296.603 482.475 291.956Z" fill="#E6E6E6"/>
<path fill-rule="evenodd" clip-rule="evenodd" d="M482.475 291.956C476.775 290.278 469.475 290.356 460.221 293.439C460.221 293.439 467.836 319.132 495.008 320.459C495.126 308.123 491.843 296.603 482.475 291.956Z" fill="#727272"/>
<path fill-rule="evenodd" clip-rule="evenodd" d="M524.49 409.384C523.89 404.21 507.82 395.152 494.99 399.699C488.278 402.077 481.05 409.742 473.19 410.386C463.669 411.171 459.435 405.171 451.666 405.171C443.993 405.171 437.155 412.604 437.155 418.255C437.155 425.255 441.494 432.886 448.771 435.555C450.41 445.881 451.025 456.344 450.605 466.792C449.805 480.872 445.379 488.667 445.379 488.667L530.343 491.167C517.443 458.755 527.508 435.376 524.49 409.384Z" fill="#999999"/>
<path fill-rule="evenodd" clip-rule="evenodd" d="M471.612 337.888C469.512 337.894 467.868 338.621 467.458 339.177C466.848 340.003 468.518 340.46 469.358 340.519C469.829 340.562 470.297 340.637 470.758 340.745C471.469 340.912 472.209 340.912 472.92 340.745C473.381 340.637 473.849 340.562 474.32 340.519C475.158 340.46 476.629 340.119 476.22 339.177C476.043 338.785 473.859 337.876 471.612 337.888Z" fill="#727272"/>
<path fill-rule="evenodd" clip-rule="evenodd" d="M457.772 287.53C457.772 287.53 468.556 319.613 508.347 315.53C508.343 315.526 503.628 274.039 457.772 287.53Z" fill="#A1A1A1"/>
<path fill-rule="evenodd" clip-rule="evenodd" d="M577.221 510.417C568.992 491.166 565.356 463.999 554.543 442.029C552.29 437.447 529.356 434.872 531.36 441.329C539.481 467.477 566.719 508.094 565.312 518.005C564.471 523.938 562.183 528.245 563.086 533.456C563.915 538.256 567 532.422 568.734 537.974C569.759 541.258 571.655 551.174 573.02 551.254C575.803 551.413 575.299 548.375 574.538 544.92C574.97 545.021 575.42 545.011 575.847 544.89C576.274 544.769 576.663 544.541 576.977 544.228C577.291 543.915 577.52 543.527 577.643 543.101C577.766 542.674 577.778 542.224 577.678 541.792C578.166 541.736 578.636 541.579 579.06 541.331C579.484 541.083 579.851 540.749 580.139 540.352C580.427 539.954 580.628 539.501 580.731 539.021C580.834 538.541 580.836 538.044 580.737 537.564C583.579 536.964 584.08 534.731 582.82 531.133C581.481 527.289 581.543 520.525 577.221 510.417Z" fill="#E6E6E6"/>
<path fill-rule="evenodd" clip-rule="evenodd" d="M577.221 510.417C568.992 491.166 565.356 463.999 554.543 442.029C554.543 442.023 554.534 442.02 554.534 442.014C548.376 421.823 537.02 391.454 527.634 376.187C527.634 376.187 533.057 403.46 537.493 417.387C541.393 429.633 548.517 438.51 553.993 449.887C561.033 464.521 568.243 486.387 570.493 502.387C572.5 516.678 578.493 527.656 580.732 537.895C580.721 537.784 580.756 537.678 580.738 537.564C583.58 536.964 584.081 534.731 582.821 531.133C581.481 527.289 581.543 520.525 577.221 510.417Z" fill="#727272"/>
<path fill-rule="evenodd" clip-rule="evenodd" d="M447.354 639.417C446.254 636.117 443.631 636.763 441.521 629.117C435.067 605.688 442.151 541.63 428.968 522.412C421.5 511.522 391.717 514.296 394.368 537.189C397.168 561.335 430.558 639.297 431.194 648.581C431.367 651.101 431.551 683.21 432.003 687.54C432.466 691.967 431.83 702.581 437.859 702.649C443.068 702.705 452.929 691.549 454.271 687.5C456.371 681.183 450.805 669.532 448.851 658.1C447.348 649.273 448.843 643.871 447.354 639.417Z" fill="#E6E6E6"/>
<path fill-rule="evenodd" clip-rule="evenodd" d="M447.354 639.417C446.254 636.117 443.631 636.763 441.521 629.117C435.067 605.688 442.151 541.63 428.968 522.412C424.758 516.271 413.455 514.478 404.868 518.181C407.341 518.174 409.773 518.803 411.932 520.009C414.091 521.215 415.903 522.957 417.193 525.066C425.27 537.429 424.593 553.311 425.007 567.497C425.507 584.518 427.816 602.943 432.595 619.302C437.654 636.617 445.479 648.485 445.013 666.924C444.796 675.546 453.624 680.919 450.058 688.449C448.858 690.98 442.866 698.574 435.658 701.987C436.314 702.418 437.082 702.648 437.867 702.649C443.076 702.705 452.937 691.549 454.279 687.5C456.379 681.183 450.813 669.532 448.859 658.1C447.348 649.273 448.843 643.871 447.354 639.417Z" fill="#727272"/>
<path fill-rule="evenodd" clip-rule="evenodd" d="M447.89 482.357C447.89 482.357 433.561 493.8 433.573 493.8C451.45 493.8 463.242 515.2 464.991 514.074C479.991 504.385 511.585 519.98 508.291 548.166C526.109 539.331 539.398 524.257 530.191 490.63C507.743 482.949 476.004 476.046 447.89 482.357Z" fill="#999999"/>
<path fill-rule="evenodd" clip-rule="evenodd" d="M465.043 514.041C470.519 504.511 484.989 497.386 484.989 497.386C484.989 497.386 466.664 498.309 457.119 506.158C462.975 513.042 465.029 514.053 465.043 514.041Z" fill="#D0D0D0"/>
<path fill-rule="evenodd" clip-rule="evenodd" d="M530.343 491.161C530.325 491.117 530.31 491.076 530.296 491.032C530.258 490.894 530.237 490.768 530.196 490.632C530.175 490.627 530.158 490.621 530.14 490.615C517.575 458.5 527.489 435.229 524.489 409.386C524.419 408.786 517.289 421.164 514.616 422.013C498.866 427.013 495.535 417.003 488.489 420.762C481.179 424.667 474.031 423.803 472.989 423.888C466.93 424.388 453.237 431.013 455.889 433.902C457.741 435.92 475.325 426.472 489.923 434.13C492.102 435.181 494.045 436.664 495.633 438.489C497.222 440.313 498.423 442.442 499.164 444.745C500.933 450.619 497.734 455.125 497.933 460.694C498.103 465.358 501.941 465.906 503.415 470.494C505.052 475.594 502.093 480.594 498.877 484.213C494.842 488.746 516.408 496.67 518.986 502.134C523.114 510.885 521.078 525.634 508.286 548.165C526.007 539.376 539.226 524.403 530.317 491.157L530.343 491.161Z" fill="#D0D0D0"/>
<path fill-rule="evenodd" clip-rule="evenodd" d="M446.692 276.872C424.473 274.214 401.42 278.579 394.204 300.359C394.204 300.359 404.692 275.134 448.491 292.636C492.29 310.138 532.491 336.636 570.491 315.886L511.243 290.201C477.618 283.885 456.427 278.038 446.692 276.872Z" fill="#F7F7F7"/>
<path fill-rule="evenodd" clip-rule="evenodd" d="M495.99 304.349C489.46 300.889 484.497 292.874 477.844 289.736C471.744 286.859 457.608 288.3 451.244 287.893C447.459 287.65 434.993 282.886 425.444 286.683C433.375 287.538 441.139 289.543 448.492 292.636C492.292 310.136 532.492 336.636 570.492 315.886L524.592 295.986C525.984 312.817 511.377 312.5 495.99 304.349Z" fill="#ECECEC"/>
<path fill-rule="evenodd" clip-rule="evenodd" d="M479.569 263.158C461.944 261.277 446.719 270.075 444.29 283.068L511.243 290.201C510.835 276.907 497.197 265.033 479.569 263.158Z" fill="#F7F7F7"/>
<path fill-rule="evenodd" clip-rule="evenodd" d="M479.569 263.158C478.336 263.023 477.12 262.958 475.91 262.929C483.41 266.02 489.483 271.841 492.641 281.243C493.075 282.359 493.267 283.554 493.205 284.75C493.142 285.946 492.826 287.115 492.278 288.18L511.243 290.201C510.835 276.907 497.197 265.033 479.569 263.158Z" fill="#ECECEC"/>
<path fill-rule="evenodd" clip-rule="evenodd" d="M449.443 272.917L446.754 276.55C457.066 274.965 511.028 287.891 511.028 287.891L509.443 282.374C495.193 274.367 449.443 272.917 449.443 272.917Z" fill="white"/>
<path fill-rule="evenodd" clip-rule="evenodd" d="M492.843 277.288C492.921 279.445 492.359 281.577 491.226 283.414C502.315 285.804 511.026 287.893 511.026 287.893L509.441 282.376C505.655 280.247 499.634 278.585 492.843 277.288Z" fill="#FFF7F3"/>
<path d="M421.843 201.423L415.816 194.223C416.275 194.095 416.721 193.922 417.146 193.707C417.92 192.7 415.957 186.386 414.63 186.363C414.258 186.354 410.601 187.763 410.551 187.784L407.985 184.643C408.231 184.59 408.471 184.509 408.7 184.403C409.576 183.911 409 182.475 408.451 182.097C407.727 182.139 407.021 182.339 406.383 182.683L403.019 178.57L398.243 179.905L402.321 191.788C402.268 191.82 399.309 193.876 399.447 194.372C399.635 195.039 403.461 195.497 403.596 195.5L407.26 206.184C400.66 208.784 389.66 213.984 389.66 213.984L383.004 208.833C382.394 208.362 381.659 208.079 380.891 208.021C380.122 207.963 379.353 208.131 378.679 208.505L376.151 209.905L382.096 218.278C382.096 218.278 381.111 219.136 381.181 219.388C381.211 219.488 381.451 219.581 381.712 219.66C378.006 220.63 374.297 221.603 370.612 222.646L357.683 226.891C353.377 228.32 349.02 229.63 344.849 231.429L332.189 236.489L329.022 237.757C327.982 238.211 326.966 238.721 325.934 239.201L319.77 242.128L313.603 245.058L310.518 246.523C309.499 247.033 308.518 247.616 307.518 248.158L295.559 254.79C279.767 264.046 264.93 274.843 251.265 287.023C251.219 287.07 251.172 287.111 251.125 287.155V297.217C252.78 295.541 254.456 293.883 256.125 292.217C269.056 279.869 283.178 268.832 298.283 259.267L309.814 252.344C310.781 251.776 311.724 251.169 312.714 250.63L315.702 249.083L321.684 245.983L327.667 242.883C328.667 242.373 329.653 241.832 330.667 241.348L333.752 239.989L346.101 234.551C350.173 232.623 354.441 231.182 358.663 229.618L371.352 224.959C375.022 223.782 378.723 222.674 382.423 221.569L381.81 230.104L384.696 229.99C385.467 229.96 386.212 229.704 386.839 229.255C387.466 228.805 387.948 228.181 388.224 227.461L391.241 219.61C391.241 219.61 403.341 218.344 410.341 217.143L412.392 226.535C412.345 226.568 409.16 229.035 409.348 229.711C409.491 230.211 413.148 230.432 413.248 230.429L416.274 244.283L421.05 242.947L421.779 237.747C422.372 237.655 422.953 237.497 423.511 237.278C424.387 236.786 423.804 235.347 423.259 234.972C423.148 234.896 422.726 234.999 422.137 235.204L422.942 229.476C423.115 229.449 426.212 228.858 426.487 228.685C427.607 227.976 426.01 221.56 424.826 221.097C424.587 221.098 424.349 221.118 424.114 221.156L425.186 213.527C435.271 209.979 441.467 205.08 440.805 202.71C440.095 200.237 421.843 201.423 421.843 201.423Z" fill="#A1A1A1"/>
</g>
<defs>
<linearGradient id="paint0_linear" x1="443.894" y1="626.064" x2="683.613" y2="626.064" gradientUnits="userSpaceOnUse">
<stop stop-color="#979797"/>
<stop offset="1" stop-color="#E6E2D5"/>
</linearGradient>
<clipPath id="clip0">
<rect width="1080" height="1080" fill="white"/>
</clipPath>
</defs>
</svg>
