<svg width="25" height="23" viewBox="0 0 25 23" fill="none" xmlns="http://www.w3.org/2000/svg">
<path d="M21.875 14.375L15.625 20.1212L4.16875 20.125C3.89321 20.126 3.62851 20.0264 3.4328 19.8479C3.23709 19.6695 3.12638 19.4269 3.125 19.1734V3.82663C3.125 3.30146 3.58854 2.875 4.15937 2.875H20.8406C21.4115 2.875 21.875 3.312 21.875 3.83525V14.375ZM19.7917 4.79167H5.20833V18.2083H13.5417V13.4167C13.5417 13.1819 13.6354 12.9554 13.8049 12.78C13.9745 12.6046 14.2081 12.4925 14.4615 12.465L14.5833 12.4583L19.7917 12.4574V4.79167ZM18.9281 14.374L15.625 14.375V17.412L18.9281 14.374Z" fill="#14213D"/>
</svg>
